<!DOCTYPE svg PUBLIC "-//W3C//DTD SVG 1.1//EN" "http://www.w3.org/Graphics/SVG/1.1/DTD/svg11.dtd">
<!-- Uploaded to: SVG Repo, www.svgrepo.com, Transformed by: SVG Repo Mixer Tools -->
<svg fill="#6200ee" width="220px" height="220px" viewBox="0 0 32.00 32.00" version="1.1" xmlns="http://www.w3.org/2000/svg" stroke="#6200ee" stroke-width="0.00032">
<g id="SVGRepo_bgCarrier" stroke-width="0"/>
<g id="SVGRepo_tracerCarrier" stroke-linecap="round" stroke-linejoin="round" stroke="#000000" stroke-width="0.576"> <title>pictures</title> <path d="M27.733 19.635l-1.316 4.914-0.037 0.010-1.438 5.367-9.296-2.49-0.111 0.029-9.788-2.622-0.017-0.064-2.605-0.699 0.493-1.841 0.032 0.009 4.829-18.022-0.032-0.009 0.509-1.897 17.105 4.584 0.016-0.056 4.711 1.262-3.072 11.46 0.017 0.065zM28.382 9.498l-18.023-4.829-3.558 13.28 18.021 4.828 3.56-13.279zM12.234 13.392l1.194 2.045 3.107-2.925 1.583 2.766 4.185-3.689 1.047 8.559-13.822-3.706 2.706-3.050zM13.127 11.38c-0.785-0.211-1.252-1.019-1.041-1.804s1.018-1.253 1.804-1.042c0.785 0.211 1.252 1.019 1.041 1.804s-1.018 1.253-1.804 1.042zM21.64 4.479l-0.414 0.111-3.795-1.017 5.598-1.5 0.866 3.231-2.19-0.587-0.065-0.238zM3.617 9.309l1.242 4.635-1.017 3.794-2.63-9.818 5.668-1.519-0.587 2.19-2.676 0.718zM7.058 29.736l-1.018-3.798 7.597 2.036-6.579 1.762z"/> </g>
<g id="SVGRepo_iconCarrier"> <title>pictures</title> <path d="M27.733 19.635l-1.316 4.914-0.037 0.010-1.438 5.367-9.296-2.49-0.111 0.029-9.788-2.622-0.017-0.064-2.605-0.699 0.493-1.841 0.032 0.009 4.829-18.022-0.032-0.009 0.509-1.897 17.105 4.584 0.016-0.056 4.711 1.262-3.072 11.46 0.017 0.065zM28.382 9.498l-18.023-4.829-3.558 13.28 18.021 4.828 3.56-13.279zM12.234 13.392l1.194 2.045 3.107-2.925 1.583 2.766 4.185-3.689 1.047 8.559-13.822-3.706 2.706-3.050zM13.127 11.38c-0.785-0.211-1.252-1.019-1.041-1.804s1.018-1.253 1.804-1.042c0.785 0.211 1.252 1.019 1.041 1.804s-1.018 1.253-1.804 1.042zM21.64 4.479l-0.414 0.111-3.795-1.017 5.598-1.5 0.866 3.231-2.19-0.587-0.065-0.238zM3.617 9.309l1.242 4.635-1.017 3.794-2.63-9.818 5.668-1.519-0.587 2.19-2.676 0.718zM7.058 29.736l-1.018-3.798 7.597 2.036-6.579 1.762z"/> </g>
</svg>